<svg version="1.1" id="Layer_1" xmlns="http://www.w3.org/2000/svg" xmlns:xlink="http://www.w3.org/1999/xlink" x="0px" y="0px"
	 width="100%" viewBox="0 0 1024 1024" enable-background="new 0 0 1024 1024" xml:space="preserve">
<path fill="#FFFFFF" opacity="1.000000" stroke="none" 
	d="
M397.981354,440.017090 
	C414.727509,452.171631 429.979126,467.032074 451.607971,470.483429 
	C458.472565,471.578857 464.173248,474.711700 469.439392,478.892426 
	C475.604858,483.787170 482.306030,487.800415 489.288849,491.370728 
	C490.718689,492.101807 492.062042,493.283875 494.289276,492.758331 
	C493.795258,489.794922 491.333893,488.567322 489.387604,486.995758 
	C483.300537,482.080688 476.904755,477.502350 472.195618,471.104858 
	C471.059235,469.561005 469.406830,468.169220 470.030731,465.979797 
	C471.244812,465.033844 472.198029,465.601868 472.840546,466.294647 
	C479.618927,473.603668 488.594604,477.951019 496.368103,483.905731 
	C501.112976,487.540466 505.468597,491.687866 509.936035,495.675598 
	C510.648590,496.311646 511.557678,497.374115 511.478210,498.147125 
	C510.915863,503.617401 515.097351,505.181519 518.727783,506.956665 
	C527.110291,511.055573 535.657166,514.799866 544.965576,516.319885 
	C547.035461,516.657837 549.144470,517.270874 552.330322,516.241394 
	C538.742859,509.254272 524.861694,503.862976 516.417297,491.295105 
	C517.325928,489.919769 518.031006,490.050751 518.590088,490.397278 
	C531.981934,498.698883 546.290344,504.849884 561.385681,509.381836 
	C574.518738,513.324646 586.015076,520.284180 595.798401,529.952576 
	C603.050964,537.119934 611.321716,542.166992 621.504456,544.357483 
	C643.716614,549.135925 661.131104,561.889587 676.179626,578.354126 
	C678.360352,580.739990 680.410156,583.671936 684.524841,582.378357 
	C685.141113,582.184631 686.102539,582.822815 686.813049,583.233826 
	C699.228271,590.417419 710.617126,598.601624 716.632385,612.398376 
	C719.897339,619.886902 726.144104,625.161194 731.334656,631.221619 
	C741.656982,643.274109 753.238770,653.421265 768.462280,659.086365 
	C781.120300,663.796570 791.452148,671.723633 798.167969,683.821777 
	C799.374756,685.995728 801.192993,687.832214 802.383789,690.012939 
	C808.869995,701.892029 818.488647,710.177979 830.918884,715.339539 
	C839.044495,718.713440 845.225830,724.364807 849.906860,731.735962 
	C852.883118,736.422607 857.425293,739.825562 860.602722,744.239746 
	C870.306702,757.720825 884.189270,763.492432 899.528564,767.883179 
	C919.232483,773.523254 938.076538,781.701538 956.698486,790.282654 
	C958.154907,790.953796 959.795227,791.473145 960.960144,794.284180 
	C836.274475,751.350220 708.301331,733.077393 577.777405,730.172668 
	C585.057556,730.849976 592.162598,732.607605 599.390869,733.515076 
	C634.246033,737.890991 668.826599,743.893066 703.180420,751.161682 
	C740.526306,759.063354 777.272034,769.173035 812.923584,782.915710 
	C842.821289,794.440369 871.960754,807.588745 898.478821,825.859802 
	C903.263000,829.156189 907.648438,833.049622 912.073059,836.836670 
	C913.215027,837.814026 914.713806,839.023865 913.792114,841.959961 
	C901.648987,835.798706 890.288025,828.406555 877.543396,823.707092 
	C883.623596,830.744995 892.816406,834.937805 896.723328,844.367676 
	C894.147949,845.490601 892.671021,844.153687 891.257080,843.228027 
	C845.787537,813.459961 795.786377,793.973999 744.094177,778.329590 
	C705.801758,766.740540 666.705200,758.700867 627.246460,752.419312 
	C594.544312,747.213379 561.650452,743.335938 528.606812,741.209778 
	C493.223907,738.933105 457.790894,737.647156 422.310059,737.875122 
	C413.341431,737.932800 404.370972,737.510559 395.528717,738.278198 
	C416.263184,741.709961 437.229248,744.651245 457.971619,748.730103 
	C494.056152,755.826111 530.167664,762.983704 564.820190,775.790955 
	C580.034058,781.413879 594.830994,787.893433 607.427673,798.412354 
	C621.856628,810.461243 622.694214,826.927307 609.857361,840.782288 
	C600.376648,851.014771 588.502686,857.769958 576.215576,863.791199 
	C546.522156,878.342285 515.263916,887.908447 482.405579,891.879883 
	C477.580811,892.463013 472.658875,893.852600 467.521881,892.309875 
	C507.568634,881.797180 547.996582,872.398132 581.794250,846.583862 
	C543.716614,867.409302 502.420502,877.516907 459.873169,883.545715 
	C477.781097,877.805908 495.869385,872.642883 513.219238,865.341553 
	C513.106628,864.926147 512.994019,864.510803 512.881348,864.095398 
	C495.598358,868.640259 478.319855,873.202515 461.031006,877.725037 
	C443.645935,882.272644 426.101776,886.112976 408.397583,889.182373 
	C390.624756,892.263672 372.722290,893.717285 353.776550,893.836914 
	C355.491180,890.934814 357.374542,890.990234 359.047363,890.688660 
	C404.813354,882.436707 449.914307,871.588501 493.651550,855.605225 
	C508.824127,850.060547 523.877441,844.109863 537.523438,835.222473 
	C541.993958,832.310913 546.404297,829.291565 549.992737,825.273438 
	C558.011780,816.294373 557.451233,808.007263 548.262451,800.211670 
	C538.945129,792.306946 527.876099,787.602295 516.572021,783.552124 
	C492.219299,774.826721 466.986511,769.374878 441.664734,764.436646 
	C405.893463,757.460510 369.843079,752.109680 333.696930,747.564270 
	C304.964874,743.951233 276.113312,741.284607 247.309769,738.245667 
	C217.850937,735.137695 188.327774,732.861877 158.758591,731.049744 
	C137.167984,729.726624 115.616402,727.764709 94.049644,726.059387 
	C92.438583,725.932007 90.678871,726.059814 88.664619,723.467102 
	C120.861237,720.329102 152.403412,722.272034 183.881653,721.326904 
	C173.203644,717.165161 161.506836,718.086975 150.429077,715.144958 
	C151.526367,712.528931 153.202042,712.915161 154.613785,712.884155 
	C167.283234,712.605286 179.917130,713.142395 192.518738,714.526917 
	C194.461105,714.740356 196.846939,715.943420 197.758484,712.568909 
	C198.242722,710.776306 200.094208,711.211548 201.619614,711.342773 
	C210.917023,712.142639 211.787476,711.429993 211.671371,702.103699 
	C211.586319,695.270325 212.891846,688.843384 216.480698,683.013733 
	C221.923752,674.172302 230.559128,673.304199 237.696381,680.862549 
	C243.748016,687.271179 245.215836,695.511169 246.546158,703.773132 
	C246.624634,704.260498 246.532913,704.772644 246.565811,705.270325 
	C247.192596,714.751709 247.236893,714.483765 256.842163,715.040955 
	C269.987854,715.803528 283.143860,715.629517 296.288055,716.079407 
	C301.004059,716.240784 302.958130,714.506042 302.724182,709.676392 
	C302.361206,702.183472 302.450958,694.688721 305.082336,687.470459 
	C307.501587,680.834229 311.280884,675.543762 318.715118,674.283691 
	C325.621033,673.113220 330.641083,676.781982 334.582092,681.808838 
	C340.778595,689.712585 342.868835,699.108765 343.232117,708.924072 
	C343.488007,715.838623 344.165924,716.717712 351.070404,716.713928 
	C397.565094,716.688293 444.060669,716.788574 490.554077,716.519531 
	C512.696899,716.391357 534.835815,715.555298 556.975891,715.014465 
	C568.655273,714.729187 574.575439,708.555847 574.633972,696.115112 
	C574.760193,669.289429 575.043823,642.464233 573.818481,615.645020 
	C572.853210,594.519592 571.626526,573.433777 568.668457,552.474121 
	C566.852905,539.609985 558.123718,529.943787 544.937317,527.343750 
	C526.798828,523.767212 508.380219,522.216736 490.003387,520.395142 
	C463.414276,517.759583 436.756805,518.258606 410.098572,518.296021 
	C391.585876,518.322021 374.003235,521.759766 356.548828,528.323120 
	C304.647919,547.839111 252.352753,566.305237 200.635666,586.324646 
	C193.156555,589.219788 188.386795,596.222900 188.349426,604.067261 
	C188.216934,631.877808 188.915222,659.693542 187.420456,687.495117 
	C186.970703,695.860229 185.635986,704.718933 194.718521,710.834534 
	C193.266479,711.195557 192.621246,711.543152 192.432434,711.375732 
	C186.703735,706.298706 179.700546,707.341003 172.939987,707.267517 
	C143.640137,706.949158 114.348854,705.879578 85.041351,706.256775 
	C82.880936,706.284607 80.719620,706.429077 78.563820,706.588379 
	C74.275330,706.905212 73.006020,705.257202 74.752510,701.301270 
	C77.659409,694.717041 81.219635,688.521179 86.063728,683.125793 
	C87.024971,682.055115 88.235519,681.061462 88.342453,678.328979 
	C82.112061,680.952942 76.369316,682.707092 72.675629,688.538696 
	C69.319046,693.838013 65.271637,698.699768 61.547874,703.728638 
	C58.436867,702.585693 58.994728,700.643005 59.564903,698.666321 
	C60.996574,693.703186 62.551071,688.788086 64.844444,684.136475 
	C65.754036,682.291504 66.745911,679.978638 64.571457,678.757446 
	C61.191944,676.859558 62.141396,674.410034 63.056953,671.931152 
	C65.709915,664.747986 66.862244,657.075256 70.218849,650.125854 
	C70.657578,649.217529 70.888176,648.261536 70.309334,647.021851 
	C67.688774,647.122620 67.459076,649.502747 66.649643,651.033752 
	C59.163162,665.193359 53.664936,680.239197 47.232948,694.870422 
	C46.338882,696.904236 45.692875,699.173462 42.761475,701.061707 
	C42.121555,695.368286 44.211864,690.891602 44.867092,686.314148 
	C50.365723,647.900940 69.458138,616.963745 98.570663,592.166626 
	C104.298553,587.287781 106.451828,582.363892 108.057747,575.509277 
	C112.342392,557.220764 117.271538,539.048828 122.835724,521.106934 
	C126.434692,509.501923 131.587799,498.389160 140.709778,489.715179 
	C143.905121,486.676788 147.290970,484.180511 151.772415,483.338806 
	C156.570724,482.437561 159.090546,479.625488 160.888458,474.750183 
	C169.804123,450.573700 184.608002,431.254669 208.920502,420.775208 
	C214.164795,418.514771 216.832306,415.737823 218.042969,409.893677 
	C223.245834,384.778168 230.481308,360.193024 239.048752,336.009857 
	C240.608765,331.606415 243.138229,328.054901 247.614120,326.118713 
	C250.056625,325.062164 252.433594,323.833557 254.766647,322.549133 
	C258.627838,320.423431 262.462280,319.158875 266.376801,322.486145 
	C272.406281,314.935516 281.294800,312.517853 289.139069,308.431061 
	C293.517273,306.150055 297.957733,308.133270 302.263763,309.236816 
	C305.334686,310.023804 308.213165,310.813171 311.512726,309.880432 
	C314.889252,308.926025 317.994507,310.734802 321.027618,312.150574 
	C325.852264,314.402618 327.243195,313.777344 327.975677,308.443085 
	C331.866699,280.106354 337.753845,252.026260 339.568451,223.432877 
	C340.128326,214.611343 343.661652,208.703949 351.394470,204.880890 
	C354.224518,203.481735 356.932159,201.800568 359.574005,200.063065 
	C363.650970,197.381699 366.986847,197.757431 369.639038,202.058029 
	C369.637177,204.212463 367.296326,204.794067 366.683746,206.499069 
	C366.218597,207.793655 365.932831,209.225937 367.107086,210.213806 
	C368.359619,211.267532 369.642883,210.541245 370.711548,209.663773 
	C372.927429,207.844315 374.040314,205.536377 373.553711,202.618958 
	C373.091034,199.844894 374.171021,197.766800 376.938873,197.552414 
	C379.944916,197.319565 382.015442,199.026184 382.278503,202.245132 
	C382.586548,206.014297 381.653442,209.856583 382.696320,213.555115 
	C390.569977,214.146652 392.877350,211.060165 391.243652,202.283371 
	C388.108459,203.055603 389.134094,207.035477 386.695099,208.257080 
	C383.645050,205.158981 383.143860,196.175598 385.865417,191.642288 
	C388.040283,188.019638 390.725189,184.997574 395.006317,183.582031 
	C400.693695,181.701538 406.343445,179.660736 411.874207,177.363464 
	C421.366058,173.420959 430.510254,174.585678 439.311035,179.126877 
	C443.078278,181.070770 446.918671,179.058670 450.836029,180.600922 
	C458.176422,183.490814 464.828949,187.028687 473.982880,186.545959 
	C482.831085,186.079361 493.550262,188.861115 500.355438,197.274368 
	C501.201843,198.320770 502.204773,198.379471 503.466827,198.259552 
	C513.618835,197.294922 522.212463,201.836777 530.609924,206.497467 
	C534.361816,208.579834 536.355103,212.740158 536.931091,216.905914 
	C538.911133,231.225510 540.561035,245.591568 542.262329,259.948730 
	C544.452637,278.432831 546.579224,296.924469 548.712646,315.415283 
	C549.074890,318.554443 549.340393,321.704895 549.638428,324.851288 
	C550.008789,328.760864 551.464050,330.529144 555.813232,328.968353 
	C561.917053,326.777771 568.242676,325.213318 574.400330,323.161652 
	C578.873962,321.671082 583.113403,321.615448 587.476929,323.584259 
	C594.914551,326.940125 603.138123,329.081573 609.747742,333.607880 
	C617.499756,338.916443 626.287048,341.709198 634.239746,346.305908 
	C639.516968,349.356171 643.008606,353.636322 644.060608,359.987671 
	C645.017761,365.766479 650.107666,369.340973 652.950073,374.166992 
	C653.810669,375.628082 656.024475,374.550415 657.600586,373.985168 
	C661.832947,372.467316 666.171143,371.201904 670.296692,369.437500 
	C679.849854,365.351807 687.900635,368.401886 695.239624,374.505585 
	C697.481506,376.370117 699.596069,377.432037 702.576416,377.982697 
	C709.533813,379.268158 716.237915,381.537445 718.969360,389.284363 
	C719.464111,390.687744 720.392456,392.694153 721.880859,392.304291 
	C726.653015,391.054352 730.255798,393.554077 734.145386,395.344940 
	C735.667603,396.045837 737.089539,395.230804 738.486938,394.758667 
	C745.743958,392.307007 753.034912,389.944122 760.219177,387.293152 
	C764.195190,385.825989 767.991882,385.610840 771.841736,387.381317 
	C782.036682,392.069702 792.925354,394.586456 803.629150,397.717102 
	C811.438477,400.001129 817.012207,404.546600 818.533081,413.289337 
	C822.097168,433.777466 825.358948,454.285004 826.442749,475.090149 
	C826.762390,481.226288 827.644470,487.331909 828.026978,493.466583 
	C828.195251,496.165314 829.447205,497.451202 831.742798,498.690735 
	C839.188416,502.711151 847.292053,505.587708 853.698547,511.461517 
	C857.329468,514.790588 859.984436,518.442627 861.699646,523.217163 
	C867.505798,539.379517 874.175171,555.180359 884.347473,569.220032 
	C884.932556,570.027527 885.425171,571.080200 886.232544,571.521545 
	C897.536743,577.700684 902.695740,590.116943 912.871216,597.525146 
	C922.647339,604.642639 925.450256,615.226807 926.443298,626.815369 
	C927.643494,640.820374 928.228638,654.860352 933.720886,668.333801 
	C939.473755,682.446899 939.282410,698.007812 942.111023,712.858643 
	C942.670227,715.794800 943.117432,718.776489 943.286377,721.755859 
	C943.447021,724.588867 945.512512,725.714600 947.371704,727.041016 
	C962.084900,737.537720 971.970093,752.197449 981.790283,766.909241 
	C982.382874,767.796875 983.349609,768.763367 982.441650,770.102844 
	C980.357910,770.805725 979.552307,768.887207 978.370239,767.947937 
	C968.963867,760.473389 960.361755,752.090698 951.653625,743.844238 
	C942.865173,735.521729 932.645081,729.364868 921.194885,726.261841 
	C905.031311,721.881470 894.236511,711.019592 884.047852,698.956848 
	C882.544128,697.176514 881.125793,695.315918 879.773193,693.417480 
	C872.685547,683.469666 863.595825,676.309631 851.744629,672.799438 
	C843.097229,670.238098 836.623718,665.108704 831.851379,657.204407 
	C827.034485,649.226501 820.690430,642.261658 814.298523,635.453186 
	C808.785278,629.580688 800.911011,628.125122 793.831909,625.561829 
	C778.257751,619.922485 764.729004,611.692322 754.494751,598.460083 
	C752.968628,596.486938 751.062073,594.803589 749.577271,592.803711 
	C742.151489,582.801819 732.450623,576.187195 720.453613,572.891052 
	C716.253601,571.737122 712.479736,569.113464 707.211426,568.492004 
	C709.140686,574.556641 715.527527,576.639832 716.438538,582.334167 
	C713.957520,583.167297 712.714905,581.457947 711.363037,580.459412 
	C698.245422,570.770508 684.600647,561.860596 672.372375,550.882324 
	C664.136414,543.488342 654.409973,537.644653 644.937500,531.773560 
	C637.678772,527.274597 631.688293,521.833130 626.998291,514.745056 
	C623.877197,510.028198 620.440063,505.512909 616.993469,501.023254 
	C615.796265,499.463806 614.272217,498.074432 612.666504,496.932068 
	C611.043579,495.777496 609.158569,495.809753 607.645630,497.337189 
	C606.237793,498.758484 607.247009,500.106964 607.993713,501.396576 
	C609.663513,504.280487 611.394531,507.129425 613.030212,510.032257 
	C613.892212,511.562225 615.253906,513.051025 613.609924,515.798767 
	C608.421936,510.065155 604.219482,504.277435 603.018616,496.706482 
	C602.891174,495.902954 603.008850,495.051544 603.076599,494.227570 
	C603.632324,487.470703 600.908203,482.914612 594.535828,480.177948 
	C590.275818,478.348480 586.420471,475.599731 582.278931,473.466461 
	C575.300781,469.872101 569.926880,464.508270 565.070679,458.495575 
	C561.932495,454.610107 558.899597,450.605652 555.437561,447.023712 
	C550.293274,441.701233 543.941040,438.961090 536.428223,438.146454 
	C527.342468,437.161224 518.345398,435.336029 509.325378,433.784729 
	C507.200775,433.419342 505.148926,433.050232 502.382935,433.926453 
	C506.930023,440.776855 517.439819,441.856659 517.830322,451.565155 
	C517.086365,452.198730 516.354065,451.587494 515.778992,451.082977 
	C505.378174,441.958008 494.035065,434.066925 482.955383,425.823761 
	C476.110748,420.731445 469.736389,414.953217 465.290710,407.610321 
	C457.169830,394.196991 445.186523,386.043396 430.567474,381.657257 
	C419.319427,378.282562 409.505890,372.401093 400.478638,365.312469 
	C387.113770,354.817657 371.571411,350.771881 355.304840,348.332550 
	C352.345245,347.888763 349.370758,347.483276 346.453949,346.832367 
	C343.500885,346.173370 340.473022,345.855835 338.933655,348.887573 
	C337.172089,352.356842 335.076691,356.262238 337.320374,360.142395 
	C339.030396,363.099731 341.112549,365.939087 344.164612,367.964142 
	C348.195190,370.638428 351.042236,375.127869 354.920380,377.508606 
	C363.061707,382.506592 368.510071,391.109894 378.302368,393.878387 
	C387.975891,396.613312 395.118195,403.288666 400.873505,411.268707 
	C411.307495,425.736115 425.879395,434.476105 441.742828,441.522858 
	C447.977173,444.292267 454.271851,446.925629 460.510498,449.685455 
	C462.257812,450.458435 464.416718,450.785919 465.118530,453.122284 
	C463.822998,454.954865 462.404175,453.490326 461.124481,453.274078 
	C458.180023,452.776550 455.412567,450.094482 452.225403,452.685516 
	C451.974670,452.889374 451.214844,452.691956 450.820312,452.461090 
	C440.729462,446.556030 428.972595,444.466583 418.962494,438.264679 
	C408.246826,431.625671 399.811249,422.755157 392.668121,412.623474 
	C388.820435,407.165985 383.948212,403.439728 377.792664,401.426453 
	C367.234741,397.973206 357.994202,391.977203 348.350555,386.739929 
	C344.992584,384.916229 341.514099,383.311157 338.066772,381.655945 
	C327.431671,376.549438 316.942902,380.894348 306.424377,382.258850 
	C305.192688,382.418640 303.993652,383.307220 302.909149,384.047852 
	C295.730316,388.950531 289.447723,394.931335 283.076447,400.791748 
	C281.846924,401.922760 279.992065,402.892792 280.397675,405.952271 
	C289.128021,400.903168 298.023315,396.911102 305.753845,390.883179 
	C313.243927,385.042694 321.367096,381.564362 330.704956,385.616943 
	C343.840088,391.317566 356.794586,397.445312 369.434540,404.195923 
	C372.385284,405.771820 374.879272,408.022827 377.234283,410.403503 
	C385.785553,419.048035 394.034668,428.002838 403.371124,435.842163 
	C404.133423,436.482208 404.834412,437.213806 405.471893,437.979431 
	C406.333130,439.013824 407.256317,440.167969 406.147919,441.516235 
	C405.221100,442.643677 404.059692,442.104401 402.954956,441.649841 
	C401.574707,441.081909 400.170319,440.572754 398.186096,439.746185 
	C394.033936,435.738525 389.463837,434.510956 384.631927,433.920532 
	C388.998749,436.160065 393.128815,438.918121 397.981354,440.017090 
M755.082825,420.333435 
	C754.337341,414.546906 749.127258,414.470856 745.273743,412.644012 
	C743.092651,411.610046 741.524170,411.901581 740.506226,414.325745 
	C739.129883,417.603363 736.807556,418.321564 733.650879,416.626160 
	C732.485718,416.000366 731.218262,415.416382 729.931152,415.189667 
	C718.606750,413.194977 711.957520,407.228607 711.548584,395.054108 
	C711.425598,391.391876 704.990479,387.686523 701.638000,388.996887 
	C696.543823,390.987976 693.991150,388.046722 692.143738,384.386993 
	C690.932129,381.986755 689.497620,380.283813 687.148987,379.147919 
	C684.583557,377.907196 682.941040,378.493195 682.431458,381.374969 
	C681.390442,387.262115 680.290161,393.142975 679.445007,399.059387 
	C678.568237,405.196442 676.974121,406.282837 671.281860,403.753479 
	C665.024963,400.973267 658.721802,398.314331 651.894592,397.419739 
	C647.730713,396.874176 645.871216,394.877625 645.437622,390.688446 
	C644.575012,382.355896 643.136292,374.160400 636.482910,368.033417 
	C635.005920,366.673187 634.276245,364.909515 634.265320,362.688293 
	C634.231506,355.838196 625.445068,349.102631 618.720093,350.519226 
	C615.064575,351.289246 611.946655,350.033081 610.123840,346.913788 
	C604.448425,337.201294 593.535278,338.165741 584.882080,332.942780 
	C584.224487,336.439545 583.732361,338.695038 583.384216,340.972534 
	C582.105164,349.339935 581.051697,357.746277 579.567932,366.076447 
	C578.406921,372.594788 575.403137,373.982574 569.301514,371.911530 
	C563.475525,369.934052 557.568481,368.150818 551.610168,366.620728 
	C545.454468,365.040039 544.072205,363.546783 543.629211,357.232635 
	C543.292236,352.431213 543.063354,347.579102 542.165222,342.867981 
	C539.013550,326.336578 537.844055,309.561127 535.807800,292.897766 
	C533.046143,270.298248 530.320862,247.671158 528.601379,224.978485 
	C527.881104,215.471375 523.215881,211.411499 515.007568,209.457840 
	C514.197754,209.265091 513.377014,209.083450 512.600586,208.792053 
	C509.356903,207.574707 507.775818,209.067062 507.493988,212.131134 
	C507.173889,215.611588 507.228821,219.125320 506.953522,222.611389 
	C506.586151,227.263412 503.848083,228.895325 499.358154,227.461395 
	C494.368347,225.867828 492.597626,222.739166 492.582825,217.365845 
	C492.529755,198.109283 493.232971,201.759293 478.916901,196.158707 
	C478.606689,196.037354 478.289459,195.934097 477.976257,195.820328 
	C474.997345,194.738281 473.480499,196.003143 473.200958,198.941528 
	C472.807220,203.080383 472.433990,207.225891 472.241272,211.377319 
	C472.132751,213.715393 471.634155,215.698410 469.340363,216.722229 
	C465.194611,218.572617 457.088715,213.931259 456.678650,209.390656 
	C456.244659,204.585846 456.074188,199.757843 455.698547,194.946976 
	C455.348846,190.468140 449.312073,186.884460 445.889526,189.056931 
	C440.122345,192.717667 440.197632,192.662292 436.337524,187.414932 
	C434.242310,184.566772 430.900024,184.139984 427.785706,184.511536 
	C424.937866,184.851288 425.392792,187.689743 425.183899,189.772156 
	C424.618896,195.404572 424.090485,201.040802 423.576965,206.678207 
	C422.460449,218.934845 421.225372,231.183319 420.341461,243.456924 
	C420.082703,247.050049 422.016815,251.131088 420.908356,254.268707 
	C418.042786,262.380127 418.729187,270.673798 417.921051,278.909210 
	C415.468018,303.907928 415.166229,329.089996 411.464447,353.981598 
	C411.163055,356.007996 410.561829,358.449249 412.728485,360.004456 
	C416.754761,362.894440 420.608429,365.529022 426.090607,365.952454 
	C437.743774,366.852509 449.196411,369.096375 458.674927,376.882324 
	C461.892029,379.524994 465.215332,382.041412 468.540466,384.548798 
	C476.236420,390.351990 483.244904,397.121765 492.230377,401.106598 
	C501.514893,405.224091 510.726135,409.506470 519.997314,413.654480 
	C523.336365,415.148407 526.733826,416.366180 530.470215,416.741516 
	C540.885620,417.787842 551.062378,420.027588 560.146301,425.436584 
	C565.578918,428.671448 570.646484,428.925812 576.104065,425.933746 
	C578.875427,424.414368 581.811646,423.198914 584.627930,421.757385 
	C588.805176,419.619232 593.329346,418.994965 597.775940,419.833466 
	C617.256348,423.506958 635.801392,429.761749 651.674194,442.050842 
	C658.098633,447.024750 664.716919,450.946106 672.644897,453.052094 
	C690.645020,457.833740 708.528564,463.054962 726.448669,468.135773 
	C729.418274,468.977753 732.424316,468.875275 735.370483,468.452240 
	C741.789734,467.530518 748.293030,466.803772 754.533081,465.139130 
	C760.252991,463.613220 765.052795,465.050476 769.767334,467.758850 
	C772.795349,469.498352 775.615967,471.595581 778.558960,473.486755 
	C790.486877,481.151703 802.705200,488.285095 815.991699,493.379578 
	C817.749329,494.053497 819.780640,495.302246 821.605286,493.506836 
	C823.292419,491.846771 822.564148,489.815399 822.161194,487.855255 
	C819.950867,477.103333 817.803650,466.338318 815.560669,455.593292 
	C812.770630,442.228333 811.142822,428.691010 809.479858,415.159515 
	C808.969971,411.010040 807.309692,407.421265 803.062866,406.609894 
	C793.049072,404.696808 783.358337,401.829132 773.903687,398.091003 
	C770.863342,396.888916 769.437805,397.977356 769.368286,401.095276 
	C769.271729,405.425140 768.771790,409.811646 769.275879,414.075623 
	C770.314575,422.862274 766.367493,426.740448 757.392151,421.830383 
	C756.808044,421.510864 756.232605,421.175537 755.082825,420.333435 
M907.579468,640.786255 
	C906.872314,638.918274 905.894470,637.105225 905.502441,635.173279 
	C903.148987,623.576172 897.554138,613.727661 889.658081,605.062683 
	C889.003662,604.344543 888.296021,603.504700 889.124939,602.401855 
	C890.536743,602.003174 891.187561,603.210449 892.043396,603.862671 
	C901.725281,611.241394 908.430908,620.755920 912.485291,632.220337 
	C913.133606,634.053711 913.421875,636.438293 916.042603,637.165344 
	C917.344849,634.519043 916.948303,631.922119 916.547058,629.601807 
	C915.381287,622.860901 916.812622,615.156921 911.018311,609.915161 
	C900.532715,600.429382 891.148499,589.693726 879.367554,581.671082 
	C874.838257,578.586609 871.646851,574.650513 869.368774,569.569580 
	C863.440491,556.347900 857.377747,543.138245 852.834473,529.417358 
	C849.798157,520.247375 844.330200,514.678955 835.632996,511.621185 
	C833.162231,510.752533 830.913574,508.639374 827.069641,509.998352 
	C837.487122,517.986877 843.730774,527.688293 845.812683,540.344910 
	C842.051941,540.301270 841.054321,537.912354 839.958984,536.032104 
	C834.936584,527.410645 828.087219,520.440186 820.696533,513.887817 
	C817.461426,511.019623 814.016785,508.187958 811.544434,504.715240 
	C809.065063,501.232697 806.047424,498.821930 802.234009,497.583557 
	C792.081238,494.286499 783.512207,488.219330 774.732422,482.485077 
	C771.246155,480.208099 767.825928,477.814697 764.229675,475.725525 
	C759.965332,473.248199 754.532471,474.244080 750.550171,478.116608 
	C751.782104,480.203186 755.168396,481.512390 754.031677,484.652344 
	C752.985291,487.542511 754.474792,489.026398 756.461548,490.464722 
	C759.323486,492.536652 762.053345,494.764069 763.248596,498.243225 
	C764.971191,503.257904 767.026917,508.220154 768.104065,513.379395 
	C769.559937,520.352173 773.244507,525.500610 778.809570,529.615417 
	C783.765503,533.279846 788.752319,536.921387 793.036743,541.395691 
	C799.576660,548.225281 805.097717,555.642334 806.497375,565.360046 
	C807.191528,570.179077 809.763245,573.606018 814.093567,575.754150 
	C822.597595,579.972595 829.162659,586.597900 835.694824,593.244019 
	C836.739807,594.307251 838.362183,595.445801 837.064453,597.378418 
	C834.776001,597.822205 833.567749,593.712646 830.778198,596.108276 
	C835.249817,605.451782 839.772705,614.699768 844.102356,624.037415 
	C846.160828,628.476990 848.479797,632.849365 852.139648,635.984192 
	C864.493774,646.565979 870.965393,661.189087 879.279785,674.545776 
	C892.162964,695.242126 909.401550,710.762085 932.377991,719.500793 
	C933.844116,720.058411 935.534973,721.328308 937.050781,719.947327 
	C938.483154,718.642456 937.875427,716.786255 937.339844,715.240417 
	C931.186829,697.479919 926.928101,679.068237 918.974731,661.922546 
	C917.796997,659.383545 916.787903,656.989502 913.670288,657.804749 
	C911.648376,652.153442 909.746277,646.836914 907.579468,640.786255 
M723.723877,520.539551 
	C721.438721,509.746338 716.165039,500.603607 707.887451,493.401459 
	C699.151428,485.800507 691.401184,476.634735 680.000488,472.813873 
	C669.712280,469.365845 660.230103,464.826050 652.789734,456.748047 
	C643.872925,447.067139 632.439697,441.344879 620.562195,436.497009 
	C614.434265,433.995850 607.909729,432.453827 601.534424,430.580383 
	C599.923889,430.107117 598.055115,429.972504 596.989075,431.627777 
	C595.960510,433.224731 597.463928,434.389740 598.205017,435.618378 
	C599.393982,437.589417 601.497681,439.054443 601.710754,441.560150 
	C602.357056,449.161102 606.954834,455.067352 610.401245,461.410980 
	C611.905334,464.179596 615.029541,465.850067 618.179321,466.478760 
	C623.821228,467.604889 628.195923,470.479187 632.124023,474.602905 
	C646.827454,490.038666 656.604370,494.576141 678.625488,496.646545 
	C675.030457,491.090454 669.100769,487.362213 666.265076,481.152252 
	C678.712891,488.458618 689.451782,497.538147 698.500366,508.745178 
	C704.337708,515.975037 708.747803,524.540527 716.390503,530.109863 
	C721.643616,533.937927 725.506104,538.750488 729.348877,543.798706 
	C738.529663,555.859497 748.276672,567.453125 759.040833,578.150452 
	C760.118103,579.221008 761.183838,580.810669 763.247742,580.045105 
	C763.873840,577.948914 762.525940,576.451111 761.627014,574.992310 
	C752.960388,560.929138 742.869202,547.894470 732.142029,535.379333 
	C728.477478,531.103943 725.515625,526.673523 723.723877,520.539551 
M360.913696,339.618317 
	C374.798523,339.951721 387.255554,344.602539 398.835571,352.023163 
	C400.485443,353.080444 402.727753,355.277466 404.235443,352.136200 
	C405.503571,349.494080 404.406097,347.302643 401.345215,346.401245 
	C387.482758,342.318970 373.756470,337.756165 359.275452,336.107086 
	C354.710785,335.587280 349.396820,335.251434 346.055817,332.347961 
	C338.340118,325.642700 329.920380,330.195557 321.479675,328.362427 
	C321.794617,330.150177 321.864746,330.791779 322.024017,331.410400 
	C322.727234,334.141571 321.677399,336.229034 319.122498,336.931335 
	C316.202881,337.733856 313.785095,336.193939 312.587616,333.574493 
	C311.363556,330.896973 313.126282,328.694244 315.413086,328.086945 
	C319.076202,327.114136 318.666840,324.397308 318.188171,322.214600 
	C317.600952,319.536713 314.647980,318.816864 312.538849,319.454437 
	C308.563904,320.656128 305.086945,319.924133 301.388763,318.608826 
	C298.998901,317.758850 296.103546,317.434357 295.491516,321.028992 
	C293.844055,330.705597 292.781403,340.459137 292.305481,350.266418 
	C292.179810,352.856689 293.270416,354.140320 296.208954,354.075714 
	C306.978668,353.838867 317.039856,351.960052 325.060577,343.865875 
	C327.020081,341.888428 329.570312,340.441895 331.992981,338.991974 
	C334.853516,337.279968 337.858185,335.766663 341.387054,336.218109 
	C347.657959,337.020325 353.930176,337.820740 360.913696,339.618317 
M678.950500,597.602112 
	C689.971130,616.539490 705.725220,630.315308 725.159851,641.060669 
	C725.461731,637.873535 723.786133,636.771606 722.620667,635.455566 
	C716.742432,628.817627 710.976196,622.007507 707.839355,613.636719 
	C703.669983,602.510681 695.526917,594.821960 686.792114,587.504272 
	C685.653687,586.550476 684.168457,585.132324 682.829041,586.217651 
	C679.065674,589.267029 676.603943,586.366638 674.068054,584.524963 
	C667.191589,579.530884 660.419861,574.377808 652.939331,570.310425 
	C650.606201,569.041870 648.423157,566.872009 645.281616,567.489380 
	C645.181580,569.564514 646.522217,570.437683 647.660645,571.328918 
	C654.860107,576.964905 661.314087,583.582642 669.431335,588.010376 
	C673.345337,590.145325 676.398132,593.102966 678.950500,597.602112 
M327.945953,417.686615 
	C324.807465,417.186981 321.690399,416.805054 318.664764,418.285461 
	C304.065247,425.428833 295.092499,437.185974 290.533325,452.559967 
	C290.340332,453.210815 290.473267,453.886627 291.802307,454.317810 
	C297.467926,449.133270 305.857544,446.659882 310.881927,440.869629 
	C319.932281,430.439667 330.648346,427.775269 343.443512,429.333313 
	C353.326385,430.536743 363.305176,430.860687 373.139130,432.585052 
	C374.541687,432.831024 376.403442,433.453430 378.109406,430.798004 
	C361.464081,426.252899 345.339600,421.310211 327.945953,417.686615 
M166.143906,512.561646 
	C164.112915,516.221313 161.665817,519.692261 161.035385,524.029236 
	C169.487686,514.692139 175.558151,503.725403 180.053696,492.261475 
	C187.858841,472.357941 199.303909,455.508209 216.172852,442.353516 
	C219.471466,439.781189 222.610107,437.003723 225.822525,434.320892 
	C196.958359,448.292023 179.809296,471.827850 170.753220,501.831665 
	C169.686401,505.366180 168.525864,508.806335 166.143906,512.561646 
M312.812195,702.826355 
	C312.900452,709.459961 312.874695,716.110107 315.457306,722.405212 
	C316.408844,724.724548 317.530182,726.930420 319.649536,728.445740 
	C321.632111,729.863281 323.614716,729.939026 325.635406,728.519531 
	C327.778961,727.013794 327.583832,725.412964 326.124146,723.470154 
	C325.603760,722.777588 325.526001,721.584045 325.594330,720.644470 
	C326.066376,714.153442 324.830353,707.747375 324.720154,701.289062 
	C324.673920,698.579163 323.830719,696.081909 322.718384,693.655518 
	C321.989349,692.065247 320.883118,690.769653 319.071259,690.642883 
	C317.144928,690.508240 316.172241,691.985779 315.346222,693.471375 
	C313.867859,696.130127 313.301239,699.050659 312.812195,702.826355 
M589.006042,579.794861 
	C587.256104,577.650757 585.319580,575.772400 582.256836,576.976990 
	C579.367188,578.113464 580.104675,580.782227 580.102783,583.005615 
	C580.096497,590.298462 580.275330,597.592163 580.206604,604.883911 
	C580.173462,608.397827 581.859131,610.213318 585.142883,610.459778 
	C588.416260,610.705505 590.271484,608.548706 590.354431,605.648438 
	C590.594971,597.239258 591.609253,588.772400 589.006042,579.794861 
M747.778320,697.087585 
	C750.978271,697.926025 749.649658,696.111450 748.906982,694.996948 
	C744.771423,688.790894 741.080994,682.235107 734.587219,677.960999 
	C729.035339,674.306824 723.673706,670.364502 718.150146,666.665771 
	C716.966003,665.872864 715.759644,664.036560 713.718262,665.867065 
	C713.930237,666.441528 713.990417,667.176270 714.385864,667.592163 
	C722.797668,676.439575 729.521301,687.058716 740.927490,692.775330 
	C743.144714,693.886597 745.148132,695.424377 747.778320,697.087585 
M706.425171,533.072998 
	C700.095703,527.518372 695.502380,520.602722 690.943298,513.625488 
	C689.569702,511.523254 688.273254,508.423035 684.545654,509.922882 
	C687.089600,522.324768 710.569702,546.859131 721.011292,547.880493 
	C716.178711,542.981140 711.545593,538.283875 706.425171,533.072998 
M224.221725,693.877808 
	C220.696198,702.134827 221.350800,710.336060 224.676712,718.446716 
	C225.299484,719.965454 226.317215,721.537415 228.341797,721.219360 
	C230.005432,720.957947 231.162537,719.474670 231.108490,718.059875 
	C230.812988,710.324280 231.839890,702.471741 229.593552,694.894470 
	C228.861252,692.424316 227.124374,691.349731 224.221725,693.877808 
M252.708069,388.653595 
	C252.525238,389.594177 251.980576,390.637268 254.329086,391.476562 
	C259.334564,382.638367 268.312622,377.643036 276.016022,371.180573 
	C277.498474,369.936951 279.011688,367.977814 278.367157,365.507019 
	C268.914612,364.569397 257.953857,374.322266 252.708069,388.653595 
M147.025940,500.453613 
	C150.300247,497.658844 153.571579,494.852661 155.689056,491.007935 
	C156.405807,489.706573 157.272247,488.195526 155.763565,486.972626 
	C154.433426,485.894470 153.224625,487.030334 152.251907,487.839874 
	C146.925140,492.273254 144.027908,498.198669 141.270035,505.057404 
	C144.156097,504.118011 144.979767,502.107941 147.025940,500.453613 
M212.623077,477.014465 
	C211.472748,478.321869 209.656204,479.098999 209.113922,481.925995 
	C216.508194,477.417847 222.849213,472.650452 228.646317,467.120667 
	C223.202820,469.839630 217.735596,472.491211 212.623077,477.014465 
z"/>
<path fill="#FFFFFF" opacity="1.000000" stroke="none" 
	d="
M495.926544,549.853394 
	C511.691467,550.491821 526.972168,551.098511 542.250244,551.766785 
	C550.404480,552.123474 556.617554,557.495789 557.408020,565.506226 
	C558.797607,579.587280 559.008179,593.739807 559.333252,607.881226 
	C559.489868,614.691650 558.945557,621.500000 559.842224,628.323181 
	C560.461365,633.033936 557.086365,637.260254 551.889465,639.198608 
	C546.319641,641.276001 540.471802,641.192383 534.639526,641.215393 
	C496.182037,641.367188 457.725311,641.460205 419.277252,640.356140 
	C413.299988,640.184448 407.334564,640.302856 401.365143,639.400818 
	C389.812805,637.655151 385.350922,633.232178 384.590454,621.697693 
	C383.242035,601.246887 383.776886,580.762451 383.767517,560.292236 
	C383.763763,552.007690 388.643005,547.662537 397.103638,547.618896 
	C429.903259,547.449707 462.678986,548.356201 495.926544,549.853394 
z"/>
<path fill="#FFFFFF" opacity="1.000000" stroke="none" 
	d="
M321.498413,564.558960 
	C322.969727,564.509033 324.056976,565.334839 325.229736,564.619568 
	C335.769897,558.190552 348.205322,557.110596 359.438995,552.582275 
	C363.401123,550.985107 366.064941,553.826538 366.240509,559.260559 
	C366.649017,571.902954 367.137390,584.548889 367.195312,597.195190 
	C367.322754,625.006775 367.258392,652.819702 367.135406,680.631470 
	C367.112885,685.713989 366.441650,690.793518 366.066650,695.918884 
	C363.385620,695.683167 363.737488,693.878723 363.603821,692.536377 
	C362.070557,677.137512 360.651093,661.732178 360.679779,646.231262 
	C360.692719,639.225891 360.217072,638.745972 353.271027,639.221313 
	C346.304108,639.697937 339.350769,640.998169 332.398956,640.945557 
	C316.001343,640.821594 300.029968,644.377380 283.829468,645.881165 
	C271.151917,647.057983 258.521362,648.783691 245.831543,649.773865 
	C233.099228,650.767212 220.517059,653.313049 207.699402,653.329834 
	C201.856903,653.337524 200.645859,652.040161 200.696320,646.397644 
	C200.805038,634.241211 200.774384,622.083679 200.829605,609.926697 
	C200.860901,603.036133 202.081497,601.212036 208.695511,599.089905 
	C227.379410,593.094971 246.076324,587.138672 264.809479,581.299927 
	C281.943359,575.959534 299.127716,570.780945 316.301208,565.568604 
	C317.877289,565.090210 319.535980,564.884277 321.498413,564.558960 
M320.686096,578.219055 
	C319.943909,595.338440 320.308929,612.464111 320.431061,629.587830 
	C320.439178,630.727478 320.782471,631.885071 321.099426,632.997375 
	C321.567841,634.641235 322.750458,635.568054 324.444366,635.333008 
	C325.933746,635.126160 326.686401,633.964783 326.788940,632.495850 
	C326.927826,630.506470 327.043762,628.511536 327.058746,626.518127 
	C327.144989,615.057800 327.252747,603.597168 327.242615,592.136780 
	C327.236572,585.329590 327.045044,578.522156 326.894623,571.715698 
	C326.864777,570.367126 326.655060,569.014282 324.812164,568.617859 
	C320.585022,570.130066 321.406403,574.077209 320.686096,578.219055 
M281.927124,611.500000 
	C281.852173,604.691895 281.813477,597.883118 281.678925,591.076233 
	C281.641296,589.174561 282.089996,586.573792 279.209137,586.482239 
	C276.018890,586.380859 276.307037,589.099365 276.304901,591.212341 
	C276.290527,605.328979 276.308624,619.445679 276.374969,633.562073 
	C276.384857,635.664734 276.175140,638.545593 279.149567,638.466003 
	C281.950562,638.390930 281.927887,635.547852 281.946686,633.424500 
	C282.008392,626.450256 281.937408,619.474915 281.927124,611.500000 
M236.316650,609.557373 
	C236.328247,618.852661 236.322464,628.148071 236.365570,637.443237 
	C236.374603,639.390137 236.881653,641.291016 239.240265,641.356445 
	C241.165512,641.409973 241.614777,639.735596 241.618317,638.179504 
	C241.646637,625.731201 241.634338,613.282593 241.594559,600.834290 
	C241.589493,599.249634 241.104263,597.671631 239.181381,597.683350 
	C237.091110,597.696045 236.446899,599.301575 236.391953,601.114990 
	C236.316605,603.602844 236.338318,606.093750 236.316650,609.557373 
M357.617004,583.678467 
	C357.602600,582.346863 357.658936,581.009766 357.557434,579.684814 
	C357.398346,577.608093 357.903107,574.836182 354.981628,574.506531 
	C352.249054,574.198120 351.775543,576.952393 350.892700,578.847595 
	C350.554657,579.573181 350.399292,580.460205 350.422821,581.266052 
	C350.641541,588.747803 350.879822,596.229553 351.198395,603.707642 
	C351.300812,606.111633 352.506226,608.142517 355.035645,608.120605 
	C357.791229,608.096863 357.699005,605.605591 357.703430,603.614075 
	C357.717468,597.288635 357.658264,590.963013 357.617004,583.678467 
z"/>
<path fill="#FFFFFF" opacity="1.000000" stroke="none" 
	d="
M871.274170,735.716431 
	C862.501404,726.655151 856.218079,716.244385 849.906799,705.856628 
	C848.693909,703.860352 847.764526,701.378967 845.672363,700.392151 
	C833.829468,694.806580 829.749695,681.485352 819.378052,674.403259 
	C809.105408,667.388855 801.896301,657.123840 793.058960,648.573364 
	C792.272644,647.812500 791.144714,647.084595 791.802246,645.664246 
	C792.712463,644.886108 793.484863,645.505310 793.957336,646.080200 
	C803.548096,657.750488 816.953125,664.584778 828.707703,673.503296 
	C833.148193,676.872375 837.018433,680.683350 839.665771,685.623840 
	C841.040833,688.190186 842.934937,690.092102 845.526733,691.537781 
	C851.718140,694.991272 855.338196,700.970398 859.134827,706.579773 
	C863.562927,713.122253 868.262390,719.215149 874.979187,723.614624 
	C878.053894,725.628540 880.331726,728.601196 882.385864,731.658203 
	C890.112000,743.156311 898.399353,754.175964 908.962158,763.294067 
	C909.809631,764.025574 910.849182,764.725891 910.919861,766.134521 
	C910.280823,767.737244 909.115845,767.966248 907.822876,766.979065 
	C895.155579,757.307922 882.290344,747.864075 871.274170,735.716431 
z"/>
<path fill="#FFFFFF" opacity="1.000000" stroke="none" 
	d="
M492.225739,540.117920 
	C476.476532,539.094666 461.195312,538.303223 445.884583,538.152405 
	C441.565552,538.109863 437.246826,537.883484 432.931488,537.669434 
	C429.305817,537.489624 425.847626,536.356323 426.155579,532.095764 
	C426.436462,528.210022 429.655273,526.689819 433.386444,526.727417 
	C441.712494,526.811157 450.045959,526.777893 458.361694,527.134827 
	C474.650482,527.834106 490.929260,528.766907 507.212067,529.605408 
	C508.541077,529.673767 509.925018,529.549194 511.186279,529.882202 
	C513.939331,530.609131 516.274597,532.152710 516.091919,535.316895 
	C515.912476,538.426086 513.609741,540.088623 510.682678,540.167847 
	C504.693909,540.329895 498.696167,540.161072 492.225739,540.117920 
z"/>
<path fill="#FFFFFF" opacity="1.000000" stroke="none" 
	d="
M423.038025,669.759216 
	C430.476166,671.594421 435.605255,675.586792 438.574799,682.351746 
	C440.374664,686.452087 438.863281,689.418884 434.335785,689.396912 
	C423.524048,689.344360 412.737091,688.538635 402.134766,686.399658 
	C393.990448,684.756470 388.042542,676.395020 388.927246,668.318787 
	C389.333374,664.611328 392.044250,663.458252 395.438873,663.753845 
	C404.757965,664.565247 413.728699,667.016418 423.038025,669.759216 
M406.453735,680.252808 
	C408.464447,680.634949 410.543793,681.713562 412.393311,679.735107 
	C412.228363,675.481445 409.333374,673.802551 405.927429,672.677612 
	C404.301819,672.140625 402.577148,672.065247 401.566650,673.814575 
	C400.683960,675.342590 401.435547,676.739258 402.547180,677.786804 
	C403.477142,678.663086 404.661316,679.269653 406.453735,680.252808 
z"/>
<path fill="#FFFFFF" opacity="1.000000" stroke="none" 
	d="
M530.956787,689.120117 
	C528.022400,689.390015 525.547668,689.693298 523.063843,689.861389 
	C518.829590,690.147888 516.466736,686.817139 518.382202,683.064697 
	C521.575562,676.808838 525.696533,671.737061 533.277832,670.306519 
	C539.633301,669.107300 545.836975,667.118042 552.128174,665.560608 
	C558.151062,664.069519 561.469299,667.217651 560.335510,673.249207 
	C558.447510,683.292969 555.951660,685.740051 545.755066,687.257263 
	C540.988647,687.966553 536.194153,688.486694 530.956787,689.120117 
z"/>
<path fill="#FFFFFF" opacity="1.000000" stroke="none" 
	d="
M480.017975,462.962952 
	C470.067810,450.496399 458.906036,439.569336 448.439148,428.013184 
	C474.986420,442.638306 493.708862,465.591095 513.769104,487.390015 
	C507.641144,488.866302 490.400421,476.279480 480.017975,462.962952 
z"/>
<path fill="#FFFFFF" opacity="1.000000" stroke="none" 
	d="
M918.040527,750.910767 
	C916.679199,748.822998 915.452271,747.067993 914.324585,745.251404 
	C913.287659,743.580872 912.700378,741.909485 915.801086,740.520386 
	C918.170471,744.822083 921.750854,748.516113 922.062561,753.980225 
	C919.060059,754.630432 919.099060,752.396790 918.040527,750.910767 
z"/>
<path fill="#FFFFFF" opacity="1.000000" stroke="none" 
	d="
M422.674683,402.984009 
	C416.152466,399.901184 411.810974,394.719116 407.359924,389.604767 
	C413.300415,392.916107 419.039551,396.424805 423.455750,401.663696 
	C423.599609,401.834381 423.177277,402.482300 422.674683,402.984009 
z"/>
<path fill="#FFFFFF" opacity="1.000000" stroke="none" 
	d="
M479.502411,296.778442 
	C481.859863,299.556458 481.831879,302.766022 481.906525,305.611115 
	C482.015930,309.782562 482.521759,313.851318 483.057983,317.964294 
	C483.746643,323.246460 480.900757,325.389893 475.868195,323.690887 
	C474.764923,323.318420 473.672668,322.912659 472.565796,322.551544 
	C462.591187,319.297302 462.568787,319.296265 464.008698,308.671509 
	C464.365356,306.039825 465.082672,303.450195 465.334076,300.812622 
	C465.702911,296.943146 466.598236,293.391998 470.827087,292.241791 
	C474.700592,291.188232 476.834808,294.266724 479.502411,296.778442 
z"/>
<path fill="#FFFFFF" opacity="1.000000" stroke="none" 
	d="
M438.983521,245.661957 
	C438.194183,247.318115 437.637695,248.979858 435.753387,248.545166 
	C434.547546,248.266953 433.950958,247.136139 434.081970,245.844727 
	C434.208588,244.597092 434.948181,243.659698 436.082062,243.230591 
	C437.952972,242.522598 438.870361,243.430923 438.983521,245.661957 
z"/>
<path fill="#FFFFFF" opacity="1.000000" stroke="none" 
	d="
M795.196228,509.872803 
	C791.826538,505.353424 788.677612,501.125244 785.580505,496.966614 
	C787.006104,495.161377 788.197693,495.748169 789.286133,496.590790 
	C790.068848,497.196777 790.852661,497.890076 791.394775,498.704895 
	C799.289001,510.570740 809.632751,520.016479 820.572083,528.986694 
	C832.643372,538.885010 838.527771,552.704895 843.208496,567.076294 
	C844.175415,570.044922 845.242615,573.077637 847.747925,574.606995 
	C855.856140,579.556702 859.347412,587.741211 863.005676,595.704529 
	C866.070496,602.376160 869.177612,608.971375 873.237732,615.098816 
	C873.843445,616.012939 874.785461,616.966003 873.811951,618.503296 
	C871.727356,618.553101 871.025696,616.613159 869.921387,615.388489 
	C862.385803,607.032104 856.773560,597.401123 851.725830,587.427795 
	C849.745605,583.515198 847.443542,579.986572 843.949097,577.199402 
	C840.242981,574.243408 837.754150,570.388672 836.107239,565.858398 
	C829.865356,548.688354 818.924255,534.812195 805.338806,522.888245 
	C801.199768,519.255432 797.081177,515.689026 795.196228,509.872803 
z"/>
<path fill="#FFFFFF" opacity="1.000000" stroke="none" 
	d="
M770.759644,498.620422 
	C776.138062,496.886444 775.911621,501.679230 777.700867,504.196625 
	C774.585754,503.400146 771.727966,502.302246 770.759644,498.620422 
z"/>
<path fill="#FFFFFF" opacity="1.000000" stroke="none" 
	d="
M640.643127,465.495728 
	C639.674377,464.249084 638.437866,463.464752 638.911987,461.410767 
	C643.033569,463.239685 645.647339,466.131653 648.156860,470.117493 
	C644.201233,470.314423 642.885864,467.446228 640.643127,465.495728 
z"/>
</svg>